<?xml version="1.0" encoding="utf-8"?>
<!-- Generator: Adobe Illustrator 18.0.0, SVG Export Plug-In . SVG Version: 6.00 Build 0)  -->
<!DOCTYPE svg PUBLIC "-//W3C//DTD SVG 1.1//EN" "http://www.w3.org/Graphics/SVG/1.1/DTD/svg11.dtd">
<svg version="1.1" id="Layer_1" xmlns="http://www.w3.org/2000/svg" xmlns:xlink="http://www.w3.org/1999/xlink" x="0px" y="0px"
	 viewBox="0 0 135.4 135.4" enable-background="new 0 0 135.4 135.4" xml:space="preserve">
<g>
	<g>
		<defs>
			<rect id="SVGID_1_" x="0" y="0" width="135.4" height="135.4"/>
		</defs>
		<clipPath id="SVGID_2_">
			<use xlink:href="#SVGID_1_"  overflow="visible"/>
		</clipPath>
		<path clip-path="url(#SVGID_2_)" fill="#010101" d="M127.7,0H7.7C3.6,0,0.5,3.2,0.5,7.7v120.1c0,4.1,3.2,7.7,7.2,7.7h64.5V82.6
			H54.6V62.3h17.6V47.4c0-17.6,10.8-27.1,26.2-27.1c7.7,0,14,0.5,15.8,0.9v18.1h-10.8c-8.6,0-9.9,4.1-9.9,9.9v13.1h20.3L111,82.6
			H93.4v52.4h34.3c4.1,0,7.7-3.2,7.7-7.7V7.7C135.4,3.6,131.8,0,127.7,0"/>
	</g>
</g>
</svg>
