<?xml version="1.0" encoding="utf-8"?>
<!-- Generator: Adobe Illustrator 18.0.0, SVG Export Plug-In . SVG Version: 6.00 Build 0)  -->
<!DOCTYPE svg PUBLIC "-//W3C//DTD SVG 1.1//EN" "http://www.w3.org/Graphics/SVG/1.1/DTD/svg11.dtd">
<svg version="1.1" id="Layer_1" xmlns="http://www.w3.org/2000/svg" xmlns:xlink="http://www.w3.org/1999/xlink" x="0px" y="0px"
	 viewBox="0 0 135.4 135.4" enable-background="new 0 0 135.4 135.4" xml:space="preserve">
<g>
	<g>
		<defs>
			<rect id="SVGID_1_" x="0" y="0" width="135.4" height="135.4"/>
		</defs>
		<clipPath id="SVGID_2_">
			<use xlink:href="#SVGID_1_"  overflow="visible"/>
		</clipPath>
		<path clip-path="url(#SVGID_2_)" fill="#010101" d="M121.9,0H13.5C5.9,0,0,5.9,0,13.5v108.3c0,7.7,5.9,13.5,13.5,13.5h108.3
			c7.7,0,13.5-5.9,13.5-13.5V13.5C135.4,5.9,129.5,0,121.9,0 M67.7,40.6c14.9,0,27.1,12.2,27.1,27.1S82.6,94.8,67.7,94.8
			S40.6,82.6,40.6,67.7S52.8,40.6,67.7,40.6 M17.2,121.9c-1.8,0-3.2-1.4-3.2-3.2V60.9h14c-0.9,2.3-0.9,5-0.9,6.8
			c0,22.6,18.1,40.6,40.6,40.6s40.6-18.1,40.6-40.6c0-1.8,0-4.5-0.9-6.8h14v57.8c0,1.8-1.4,3.2-3.2,3.2
			C118.2,121.9,17.2,121.9,17.2,121.9z M121.9,30.2c0,1.8-1.4,3.2-3.2,3.2h-13.5c-1.8,0-3.2-1.4-3.2-3.2V16.7c0-1.8,1.4-3.2,3.2-3.2
			h13.5c1.8,0,3.2,1.4,3.2,3.2V30.2z"/>
	</g>
</g>
</svg>
