<?xml version="1.0" encoding="utf-8"?>
<!-- Generator: Adobe Illustrator 18.0.0, SVG Export Plug-In . SVG Version: 6.00 Build 0)  -->
<!DOCTYPE svg PUBLIC "-//W3C//DTD SVG 1.1//EN" "http://www.w3.org/Graphics/SVG/1.1/DTD/svg11.dtd">
<svg version="1.1" id="Layer_1" xmlns="http://www.w3.org/2000/svg" xmlns:xlink="http://www.w3.org/1999/xlink" x="0px" y="0px"
	 viewBox="0 0 135.4 135.4" enable-background="new 0 0 135.4 135.4" xml:space="preserve">
<g>
	<g>
		<defs>
			<rect id="SVGID_1_" x="0" y="0" width="135.4" height="135.4"/>
		</defs>
		<clipPath id="SVGID_2_">
			<use xlink:href="#SVGID_1_"  overflow="visible"/>
		</clipPath>
		<path clip-path="url(#SVGID_2_)" fill="#010101" d="M128.2,0H7.2C3.2,0,0,3.2,0,7.2v121c0,4.1,3.2,7.2,7.2,7.2h121
			c4.1,0,7.2-3.2,7.2-7.2V7.2C135.4,3.2,132.2,0,128.2,0 M76.3,92.5c-6.8,0-13.5-3.6-15.8-8.1c0,0-3.6,14.9-4.5,17.6
			c-2.7,9.9-10.8,20.3-11.7,21.2c-0.5,0.5-1.4,0.5-1.4-0.5c0-1.4-2.3-14,0-24.4C44.2,93,51,63.2,51,63.2s-2.3-4.1-2.3-10.4
			c0-9.5,5.4-16.7,12.6-16.7c5.9,0,8.6,4.5,8.6,9.5c0,5.9-3.6,14.9-5.9,23c-1.8,6.8,3.6,12.6,10.4,12.6c12.2,0,20.3-15.8,20.3-34.3
			c0-14-9.5-24.8-26.6-24.8c-19.4,0-31.6,14.4-31.6,30.7c0,5.4,1.8,9.5,4.1,12.6c1.4,1.4,1.4,1.8,0.9,3.6c-0.5,1.4-0.9,4.1-1.4,5
			c-0.5,1.8-1.8,2.3-3.2,1.8C28,72.2,23.9,62.3,23.9,51c0-18.5,15.3-40.2,46-40.2c24.8,0,40.6,17.6,40.6,37
			C111,73.6,97,92.5,76.3,92.5"/>
	</g>
</g>
</svg>
