<svg id="Layer_1" data-name="Layer 1" xmlns="http://www.w3.org/2000/svg" viewBox="0 0 1300 111.26"><defs><style>.cls-1{fill:#231f20;}</style></defs><title>logotype_for_pasha</title><g id="Black_nodescr"><path class="cls-1" d="M336.19,584a9.9,9.9,0,0,0-4.37,1.46c-0.49.49-1.29,2.26-1.46,6-0.16,3.23-.16,23.29-0.32,41.72,0,14.72.32,25.23,0.32,29.27,0.16,9.86.65,12.77,10,15.2,3.23,0.65,4.53,1.94,4.53,3.4,0,1.29-2.75,2.26-5,2.26-4.2,0-13.42-1-20.54-1-4.69,0-12.61.65-17.63,0.65-3.72,0-6-.81-6-2.59,0-1.13,2.26-2.43,3.88-2.91,7.92-1.94,9.86-4.37,10.35-11.8,0.49-6.47,1-17,1-25.23,0-5.18,0-41.4-.32-46.09-0.49-5.66-1.29-8.25-10.19-9.38-2.1-.32-3.72-1.46-3.72-2.43,0-1.29,1.46-2.26,3.4-2.59,1-.16,3.88-0.16,5.34-0.16,10.35,0,23.61-1.29,30.89-1.29,15.52,0,26,2.91,32.67,9.38a30.55,30.55,0,0,1,9.38,21.83c0,13.26-6,20.38-10.67,24.42-4.2,3.56-13.1,7.28-19.41,7.28-1.78,0-6.31-.32-8.41-1.13-2.26-1-3.4-1.78-3.4-3.23,0-.65,1.13-1.62,2.43-1.62h2.43c6.79,0,16.82-8.09,16.82-24.9C358.18,597.55,349.45,584,336.19,584Z" transform="translate(-295.76 -573.94)"/><path class="cls-1" d="M449.55,579.92a124.54,124.54,0,0,0,14.23-1c0.65-.16,1.78,1,1.94,2.1,0.16,2.91.16,14.07,0.16,17.3,0,2.26-1.13,4.53-2.59,4.53s-2.75-2.43-3.07-4c-2.1-9.06-6.63-11.48-10.35-12.13-3.07-.49-10-1.13-22.48-1-0.65,0-1.94.65-2.1,4.53-0.32,4-.81,26.52-0.65,35.42a1.87,1.87,0,0,0,1.62,1.62H439.2c11.48,0,11.16-.65,14.23-7.76,1-2.43,2.1-4.2,3.56-4.2,1.29,0,1.78,2.75,1.62,4.53-0.32,4.53-.65,7.44-0.65,11.16,0,4.37.32,7,.65,11,0.16,2.91-.81,4.85-2.1,4.85s-2.59-1.94-3.07-3.56c-2.1-7.12-4.2-8.25-10.51-8.73-5.17-.49-11.16-0.49-16.17-0.49-0.65,0-2.1,1.62-2.1,1.94-0.65,4.53-.49,17.14-0.32,22.48,0.16,3.88,0,9.86.65,13.26,0.49,1.46,1.94,3.56,3.56,3.88a80.25,80.25,0,0,0,13.1,1c4.85,0,10.84,0,14.88-1.46,4.85-1.78,9.22-5.66,12.78-12,2.26-4.2,3.72-5.66,5-5.66,1.62,0,1.46,3.4,1.29,4.69,0,1.29-4.69,16.17-6.15,18.76-0.49,1.13-3.07,2.1-3.88,2.1-1.78,0-41.72-.81-53.85-0.81-10.84,0-12.61.81-18.44,0.81-3.07,0-5.5-.49-5.5-2.1,0-1.46,2.1-2.59,4.85-3.23,8.25-1.94,10.35-3.56,11-12.29,0.49-6.79,1.29-19.08,1.29-39.13,0-19.08.16-26.52-.16-31.21-0.32-5.82-1.62-9.06-8.57-10.35-3.4-.65-5.17-1.29-5.17-2.91,0-1.46,2.75-2.43,5-2.43,7.6,0,20.86.49,29.27,0.49h24.26Z" transform="translate(-295.76 -573.94)"/><path class="cls-1" d="M556.76,626c-0.65.49-4,2.26-6.31,3.4-0.81.32-.65,1.62-0.32,2.26,3.07,6.47,16.33,28.78,24.42,38.16a22.84,22.84,0,0,0,13.91,8.09c1.62,0.32,2.91,1.62,2.91,2.26,0,1-1.46,2.1-2.59,2.43-2.59,1-8.73,1.29-10.84,1.29-14.72,0-21-5.82-24.42-10.51-4.53-6.14-12.78-19.41-19.57-31-1.46-2.43-3.88-6-5.17-6.79-1.13-1-4.69-2.1-7.76-2.1a2.25,2.25,0,0,0-1.78,1.62c-0.32,3.23,0,24.74.49,32.18,0.49,7,1.62,8.57,9.06,10.51,2.75,0.81,3.88,1.94,3.88,3.07,0,1.78-3.07,2.43-5,2.43-5.66,0-12.78-1-20.7-1-5.66,0-13.75.65-15.52,0.65-4,0-5.17-1.13-5.17-2.59,0-1,1.78-1.94,3.88-2.59,7.44-2.26,9.22-4.2,9.7-9.38,1-12.45,1-26,1-39.78,0-17.3-.32-31-0.81-35.42-0.32-3.88-1.78-6.31-9.38-8.09-2.26-.65-4-1.78-4-3.07,0-1.13,1.94-2.26,4.69-2.26h11.81c6,0,19.41-.81,28.14-0.81,7.44,0,20.38.65,28.14,7.12,5,4,8.73,11.8,8.73,19.24C568.08,614,563.88,620.35,556.76,626Zm-15.69-35.9a18.44,18.44,0,0,0-13.1-5.66,25,25,0,0,0-6.15,1.13c-0.81.49-1.78,2.59-1.94,3.4-0.49,5.5-1.13,33.8-.49,38a2.58,2.58,0,0,0,2.1,1.94c8.25,0,15.69-2.43,17.46-3.56A22,22,0,0,0,548,607.25,25.49,25.49,0,0,0,541.08,590.11Z" transform="translate(-295.76 -573.94)"/><path class="cls-1" d="M640.53,579.92c18.76,0,25.07-.49,26.52-0.65a2,2,0,0,1,2.1,1.94c-0.32,4.69.49,12.45,0.65,18,0.16,2.1-.81,4.53-2.43,4.53-1.29,0-2.59-1.62-3.72-5.34-1.94-6.31-5.17-11-10.84-11.8-5-.49-19.08-0.49-22.48-0.32a3.7,3.7,0,0,0-2.43,1.78c-0.81,4.85-1,23.93-1,34.61,0,2.59.65,5.66,1.94,5.66,4.85,0,15.2.16,18.76-.32,5-.81,6.79-1.94,8.57-7.44,0.81-2.26,1.78-4.2,3.4-4.2,1.29,0,1.94,2.43,1.94,3.88,0,2.1-.65,7.44-0.65,10.35,0,5.66.32,9.7,0.32,12.29,0,3.88-1.46,5.34-2.75,5.34-0.65,0-1.94-1.13-2.91-4.21-1.62-5.82-4.2-7.28-6.63-7.76a59.74,59.74,0,0,0-10.51-1,99,99,0,0,0-10,.49c-0.65.16-1.29,1.46-1.46,1.78,0,10.67.65,26.68,0.65,29.43,0.32,6.63,1.62,8.57,9.86,10.19,2.59,0.49,4.69,1.62,4.69,3.23,0,1.29-2.43,2.43-5.34,2.43-4.2,0-10.19-.49-16.33-0.49-8.25,0-17.79,1-23.13,1-3.23,0-4.69-1-4.69-1.94,0-1.62,1.78-2.75,4.69-3.4,7.12-1.94,8.57-4.69,8.89-8.57,0.49-5,1.29-14.72,1.29-46.41,0-15,0-24.42-.32-28.62-0.32-5.34-2.26-7.76-8.57-9.22-3.4-1-5.17-1.78-5.17-3.4,0-1.46,2.59-2.26,4.85-2.26,7.12,0,14.39.49,20.86,0.49h21.35Z" transform="translate(-295.76 -573.94)"/><path class="cls-1" d="M741.6,579.92a124.54,124.54,0,0,0,14.23-1c0.65-.16,1.78,1,1.94,2.1,0.16,2.91.16,14.07,0.16,17.3,0,2.26-1.13,4.53-2.59,4.53s-2.75-2.43-3.07-4c-2.1-9.06-6.63-11.48-10.35-12.13-3.07-.49-10-1.13-22.48-1-0.65,0-1.94.65-2.1,4.53-0.32,4-.81,26.52-0.65,35.42a1.87,1.87,0,0,0,1.62,1.62h12.94c11.48,0,11.16-.65,14.23-7.76,1-2.43,2.1-4.2,3.56-4.2,1.29,0,1.78,2.75,1.62,4.53-0.32,4.53-.65,7.44-0.65,11.16,0,4.37.32,7,.65,11,0.16,2.91-.81,4.85-2.1,4.85s-2.59-1.94-3.07-3.56c-2.1-7.12-4.2-8.25-10.51-8.73-5.17-.49-11.16-0.49-16.17-0.49-0.65,0-2.1,1.62-2.1,1.94-0.65,4.53-.49,17.14-0.32,22.48,0.16,3.88,0,9.86.65,13.26,0.49,1.46,1.94,3.56,3.56,3.88a80.25,80.25,0,0,0,13.1,1c4.85,0,10.84,0,14.88-1.46,4.85-1.78,9.22-5.66,12.78-12,2.26-4.2,3.72-5.66,5-5.66,1.62,0,1.46,3.4,1.29,4.69,0,1.29-4.69,16.17-6.15,18.76-0.49,1.13-3.07,2.1-3.88,2.1-1.78,0-41.72-.81-53.85-0.81-10.84,0-12.61.81-18.44,0.81-3.07,0-5.5-.49-5.5-2.1,0-1.46,2.1-2.59,4.85-3.23,8.25-1.94,10.35-3.56,11-12.29,0.49-6.79,1.29-19.08,1.29-39.13,0-19.08.16-26.52-.16-31.21-0.32-5.82-1.62-9.06-8.57-10.35-3.4-.65-5.17-1.29-5.17-2.91,0-1.46,2.75-2.43,5-2.43,7.6,0,20.86.49,29.27,0.49H741.6Z" transform="translate(-295.76 -573.94)"/><path class="cls-1" d="M862.55,579.76a106.78,106.78,0,0,0,11.64,2.43c1.13,0,2.43,1.94,2.43,4.37,0.16,4.53.49,10.19,0.81,14.88,0.16,3.4-1,6.15-2.75,6.15-0.81,0-2.26-1.94-3.07-4.37-1.62-5-4-9.38-6.79-11.48-7-5.82-15.2-9.38-23.93-9.38-25.71,0-37.84,20.38-37.84,45,0,10.83,1.94,20.21,5.5,27.33,8.89,17.79,23.61,24.1,36.22,24.1,2.1,0,10-.32,15.69-3.72,6-3.4,10.35-8.09,14.07-14.72,1.94-3.56,3.07-5,4.37-5,1.78,0,1.78,4.2,1.29,6a75.37,75.37,0,0,1-4.85,14.07c-0.49,1.46-3.4,4-5.82,5.17a86.61,86.61,0,0,1-28.3,4.69c-23.93,0-40.91-10.67-47.54-18.27a53.29,53.29,0,0,1-13.58-36.39c0-19.57,11-33.31,17.79-38.81,13.75-11.32,30.4-14.55,43.66-14.55A91.18,91.18,0,0,1,862.55,579.76Z" transform="translate(-295.76 -573.94)"/><path class="cls-1" d="M978.5,579.6c7.92-.65,10.35-1.29,12.45-2.59,1.29-.81,1.94-1.29,2.59-1.29,0.81,0,2.1,1.78,1.46,4a114.76,114.76,0,0,0-3.4,18.76c0,1.46-1.13,4.2-3.07,4.2-1.13,0-2.1-.81-2.75-5-1.62-9.22-3.72-10.67-11.64-11-3.88,0-15.69.16-19.73,0.81a2.2,2.2,0,0,0-1.62,1.94c0,7.44-.16,19.73-0.16,33.64,0,18.6.16,35.74,0.81,43.82,0.49,5.18,1.78,8.41,12.61,10.67,2.26,0.49,4,2.26,4,3.23,0,1.46-2.75,2.1-4.53,2.1-1.29,0-19.73-.65-23.93-0.65-5,0-17.47,1-20.21,1-3.07,0-5-.65-5-1.94,0-1.46,1.94-2.91,3.56-3.4,10.51-2.59,11.16-4.69,11.81-16,0.65-9.54,1.46-41.72,1.46-54,0-9.22-.16-14.72-0.16-18.92a2.32,2.32,0,0,0-1.78-2.26c-3.07-.49-14.72-0.65-18.27-0.65-2.59,0-7.12,1.62-8.89,3.72a46.63,46.63,0,0,0-5.5,8.57c-1.94,3.23-2.91,4.2-3.56,4.2-1.62,0-2.43-1.94-2.43-3.56,0-3.07,2.91-13.58,3.07-21.83,0-.65,1.46-3.23,2.59-3.23s1.78,1.29,2.75,2.59c0.49,0.65,3.56,2.26,6.63,2.59,3.56,0.32,24.9,1,35.9,1C952.63,580.08,973.16,579.92,978.5,579.6Z" transform="translate(-295.76 -573.94)"/><path class="cls-1" d="M1186.69,579.92c0.65,0.16,1.94,2.43,2.1,3.23,0,2.1,1.62,14.55,1.62,15.2,0,2.43-.49,4-1.46,4a6,6,0,0,1-4.69-3.88c-1.62-5.34-5-9.86-7-11.48a18.92,18.92,0,0,0-12.94-4.53,16.81,16.81,0,0,0-16.49,16.82c0,9.54,7.11,14.72,21.67,23.93,19.89,12.13,23.77,22.48,23.77,32.34,0,8.41-4.85,18.11-14.23,23.77-5.5,3.4-14.88,5.82-22.64,5.82a61.13,61.13,0,0,1-23.29-4.21c-1.29-.65-4.2-4-4.2-4.69-1.29-5.66-2.75-12.61-2.75-17.3,0-1.13,1.78-3.4,2.59-3.4,1.29,0,3.88,3.88,6.31,8.89,4.85,9.86,14.23,14.88,22.48,14.88,7.44,0,16.82-5.82,16.82-16.17,0-6.79-3.4-13.26-18.27-23-16.49-10.83-25.39-19.73-25.39-34.12a27.88,27.88,0,0,1,9.86-21.18c5.34-4.53,12.94-7.76,25.71-7.76C1173.75,577.17,1182.33,579.11,1186.69,579.92Z" transform="translate(-295.76 -573.94)"/><path class="cls-1" d="M1246.36,584a9.91,9.91,0,0,0-4.37,1.46c-0.49.49-1.29,2.26-1.46,6-0.16,3.23-.16,23.29-0.32,41.72,0,14.72.32,25.23,0.32,29.27,0.16,9.86.65,12.77,10,15.2,3.23,0.65,4.53,1.94,4.53,3.4,0,1.29-2.75,2.26-5,2.26-4.2,0-13.42-1-20.54-1-4.69,0-12.61.65-17.63,0.65-3.72,0-6-.81-6-2.59,0-1.13,2.26-2.43,3.88-2.91,7.92-1.94,9.86-4.37,10.35-11.8,0.49-6.47,1-17,1-25.23,0-5.18,0-41.4-.32-46.09-0.49-5.66-1.29-8.25-10.19-9.38-2.1-.32-3.72-1.46-3.72-2.43,0-1.29,1.46-2.26,3.4-2.59,1-.16,3.88-0.16,5.34-0.16,10.35,0,23.61-1.29,30.89-1.29,15.52,0,26,2.91,32.67,9.38a30.55,30.55,0,0,1,9.38,21.83c0,13.26-6,20.38-10.67,24.42-4.2,3.56-13.1,7.28-19.41,7.28-1.78,0-6.31-.32-8.41-1.13-2.26-1-3.4-1.78-3.4-3.23,0-.65,1.13-1.62,2.43-1.62h2.43c6.79,0,16.82-8.09,16.82-24.9C1268.35,597.55,1259.62,584,1246.36,584Z" transform="translate(-295.76 -573.94)"/><path class="cls-1" d="M1344,580.73c1.46,3.88,4.37,12.13,6.47,18.11,8.89,25.07,19.89,54.34,23.13,62.42,5.34,13.1,8.89,14.72,14.39,16.33,2.75,0.81,4.2,1.78,4.2,2.91s-1.62,2.43-5.34,2.43c-4,0-16.17-.65-21.18-0.65-5.34,0-11.64.32-15.85,0.32-3.23,0-5.17-1-5.17-2.43,0-.81,1.13-2.1,4.2-2.75,6.63-1.62,6.79-4.2,6.47-6.79-0.32-4.2-3.72-13.26-7.44-23.61a4.81,4.81,0,0,0-3.88-2.43c-17.14-.16-24.9.32-27.17,0.49-0.49,0-1.46,1.13-1.78,1.62-5.17,12.94-7,20.21-7,23.45s1.62,5.5,7.6,7.12c3.23,0.81,4.69,1.78,4.69,3.23,0,1.29-2.26,2.1-4.85,2.1-2.91,0-7-.32-12.94-0.32-6.31,0-13.58.65-16,.65-3.72,0-4.69-1-4.69-1.94,0-1.13.65-2.26,4-3.23,8.25-2.26,10-4.85,14.72-14.39,3.88-7.76,21.35-53.85,28.14-69.86a12.55,12.55,0,0,0,.81-2.91,1.26,1.26,0,0,1,.32-1.29,102.42,102.42,0,0,0,8.41-10c1-1.46,2.1-2.1,2.91-2.1S1342.75,577.49,1344,580.73Zm0.32,54.82c-2.43-7.6-9.54-27.17-11.81-32.51-0.32-1.13-1.29-.81-1.78.49-2.91,7.76-10.67,28.14-11.64,32a1.36,1.36,0,0,0,1.13,1.62c6.31-.16,18.27-0.32,23.45-0.32A1.26,1.26,0,0,0,1344.36,635.55Z" transform="translate(-295.76 -573.94)"/><path class="cls-1" d="M1480,579.76a106.76,106.76,0,0,0,11.64,2.43c1.13,0,2.43,1.94,2.43,4.37,0.16,4.53.49,10.19,0.81,14.88,0.16,3.4-1,6.15-2.75,6.15-0.81,0-2.26-1.94-3.07-4.37-1.62-5-4-9.38-6.79-11.48-7-5.82-15.2-9.38-23.93-9.38-25.71,0-37.84,20.38-37.84,45,0,10.83,1.94,20.21,5.5,27.33,8.89,17.79,23.61,24.1,36.22,24.1,2.1,0,10-.32,15.69-3.72,6-3.4,10.35-8.09,14.07-14.72,1.94-3.56,3.07-5,4.37-5,1.78,0,1.78,4.2,1.29,6a75.39,75.39,0,0,1-4.85,14.07c-0.49,1.46-3.4,4-5.82,5.17a86.61,86.61,0,0,1-28.3,4.69c-23.93,0-40.91-10.67-47.54-18.27a53.28,53.28,0,0,1-13.58-36.39c0-19.57,11-33.31,17.79-38.81,13.75-11.32,30.4-14.55,43.66-14.55A91.18,91.18,0,0,1,1480,579.76Z" transform="translate(-295.76 -573.94)"/><path class="cls-1" d="M1569.63,579.92a124.52,124.52,0,0,0,14.23-1c0.65-.16,1.78,1,1.94,2.1,0.16,2.91.16,14.07,0.16,17.3,0,2.26-1.13,4.53-2.59,4.53s-2.75-2.43-3.07-4c-2.1-9.06-6.63-11.48-10.35-12.13-3.07-.49-10-1.13-22.48-1-0.65,0-1.94.65-2.1,4.53-0.32,4-.81,26.52-0.65,35.42a1.87,1.87,0,0,0,1.62,1.62h12.94c11.48,0,11.16-.65,14.23-7.76,1-2.43,2.1-4.2,3.56-4.2,1.29,0,1.78,2.75,1.62,4.53-0.32,4.53-.65,7.44-0.65,11.16,0,4.37.32,7,.65,11,0.16,2.91-.81,4.85-2.1,4.85s-2.59-1.94-3.07-3.56c-2.1-7.12-4.2-8.25-10.51-8.73-5.17-.49-11.16-0.49-16.17-0.49-0.65,0-2.1,1.62-2.1,1.94-0.65,4.53-.49,17.14-0.32,22.48,0.16,3.88,0,9.86.65,13.26,0.49,1.46,1.94,3.56,3.56,3.88a80.24,80.24,0,0,0,13.1,1c4.85,0,10.83,0,14.88-1.46,4.85-1.78,9.22-5.66,12.78-12,2.26-4.2,3.72-5.66,5-5.66,1.62,0,1.46,3.4,1.29,4.69,0,1.29-4.69,16.17-6.14,18.76-0.49,1.13-3.07,2.1-3.88,2.1-1.78,0-41.72-.81-53.85-0.81-10.84,0-12.61.81-18.44,0.81-3.07,0-5.5-.49-5.5-2.1,0-1.46,2.1-2.59,4.85-3.23,8.25-1.94,10.35-3.56,11-12.29,0.49-6.79,1.29-19.08,1.29-39.13,0-19.08.16-26.52-.16-31.21-0.32-5.82-1.62-9.06-8.57-10.35-3.4-.65-5.17-1.29-5.17-2.91,0-1.46,2.75-2.43,5-2.43,7.6,0,20.86.49,29.27,0.49h24.26Z" transform="translate(-295.76 -573.94)"/><circle class="cls-1" cx="759.66" cy="57.87" r="26.35"/></g></svg>