<?xml version="1.0" encoding="utf-8"?>
<!-- Generator: Adobe Illustrator 20.0.0, SVG Export Plug-In . SVG Version: 6.00 Build 0)  -->
<svg version="1.1" id="Layer_1" xmlns="http://www.w3.org/2000/svg" xmlns:xlink="http://www.w3.org/1999/xlink" x="0px" y="0px"
	 viewBox="0 0 1301.9 206" style="enable-background:new 0 0 1301.9 206;" xml:space="preserve">
<g id="Black_Descr">
	<g>
		<g>
			<path d="M378,160.3h4.2l18.8,42.2h-6.1l-5.6-12.4h-17.9l-5.2,12.4H360L378,160.3z M386.8,184.7l-6.8-15.2l-6.3,15.2H386.8z"/>
			<path d="M410.7,174.9v6.3l0.3-0.5c2.6-4.3,5.3-6.4,7.9-6.4c2.1,0,4.2,1,6.5,3.1l-2.9,4.8c-1.9-1.8-3.7-2.7-5.3-2.7
				c-1.8,0-3.3,0.8-4.6,2.5c-1.3,1.7-1.9,3.7-1.9,6v14.4h-5.5v-27.6H410.7z"/>
			<path d="M448.3,196v5.4c-2.7,1-5.4,1.5-8,1.5c-4.3,0-7.8-1.3-10.3-3.8s-3.9-6-3.9-10.3c0-4.3,1.2-7.8,3.8-10.5
				c2.5-2.7,5.8-4,9.9-4c1.4,0,2.7,0.1,3.8,0.4c1.1,0.3,2.5,0.8,4.2,1.5v5.8c-2.8-1.8-5.3-2.6-7.7-2.6c-2.5,0-4.5,0.9-6.1,2.6
				c-1.6,1.7-2.4,3.9-2.4,6.6c0,2.8,0.9,5.1,2.6,6.7c1.7,1.7,4,2.5,6.9,2.5C443.2,197.9,445.6,197.3,448.3,196z"/>
			<path d="M454.4,160.6h5.5v17.9c2.3-2.8,5.1-4.2,8.5-4.2c1.8,0,3.5,0.5,5,1.4c1.5,0.9,2.5,2.2,3.3,3.8c0.7,1.6,1.1,4,1.1,7.2v15.7
				h-5.5v-17.1c0-2-0.5-3.6-1.5-4.9c-1-1.2-2.3-1.8-3.9-1.8c-1.2,0-2.3,0.3-3.4,0.9c-1.1,0.6-2.2,1.7-3.5,3.1v19.8h-5.5V160.6z"/>
			<path d="M488.1,163.3c0.9,0,1.7,0.3,2.3,0.9c0.6,0.6,1,1.4,1,2.3c0,0.9-0.3,1.6-1,2.3c-0.6,0.6-1.4,1-2.3,1c-0.8,0-1.6-0.3-2.2-1
				c-0.6-0.6-1-1.4-1-2.3c0-0.8,0.3-1.6,1-2.2C486.5,163.6,487.2,163.3,488.1,163.3z M485.4,174.9h5.5v27.6h-5.5V174.9z"/>
			<path d="M494.9,179.3l10.3-10.1v5.7h8.7v4.9h-8.7v13.5c0,3.2,1.3,4.7,3.9,4.7c2,0,4-0.6,6.2-2v5.1c-2.1,1.2-4.4,1.8-6.9,1.8
				c-2.5,0-4.6-0.7-6.2-2.2c-0.5-0.4-1-0.9-1.3-1.5c-0.3-0.5-0.6-1.3-0.9-2.2c-0.2-0.9-0.3-2.6-0.3-5.1v-12.2h-4.8V179.3z"/>
			<path d="M542.7,189.2h-19.4c0.1,2.6,1,4.7,2.7,6.3c1.6,1.6,3.7,2.3,6.3,2.3c3.6,0,6.9-1.1,10-3.4v5.3c-1.7,1.1-3.3,1.9-5,2.4
				c-1.7,0.5-3.6,0.7-5.8,0.7c-3,0-5.5-0.6-7.4-1.9c-1.9-1.3-3.4-3-4.5-5.1c-1.1-2.1-1.7-4.6-1.7-7.4c0-4.2,1.2-7.6,3.6-10.2
				c2.4-2.6,5.5-3.9,9.3-3.9c3.7,0,6.6,1.3,8.8,3.8s3.3,6,3.3,10.3V189.2z M523.4,185.9h13.9c-0.1-2.2-0.8-3.9-2-5
				c-1.2-1.2-2.7-1.8-4.7-1.8s-3.6,0.6-4.8,1.8C524.6,182,523.8,183.7,523.4,185.9z"/>
			<path d="M569.3,196v5.4c-2.7,1-5.4,1.5-8,1.5c-4.3,0-7.8-1.3-10.3-3.8c-2.6-2.6-3.9-6-3.9-10.3c0-4.3,1.2-7.8,3.8-10.5
				c2.5-2.7,5.8-4,9.9-4c1.4,0,2.7,0.1,3.8,0.4c1.1,0.3,2.5,0.8,4.2,1.5v5.8c-2.8-1.8-5.3-2.6-7.7-2.6c-2.5,0-4.5,0.9-6.1,2.6
				s-2.4,3.9-2.4,6.6c0,2.8,0.9,5.1,2.6,6.7c1.7,1.7,4,2.5,6.9,2.5C564.2,197.9,566.6,197.3,569.3,196z"/>
			<path d="M571.7,179.3l10.3-10.1v5.7h8.7v4.9h-8.7v13.5c0,3.2,1.3,4.7,3.9,4.7c2,0,4-0.6,6.2-2v5.1c-2.1,1.2-4.4,1.8-6.9,1.8
				c-2.5,0-4.6-0.7-6.2-2.2c-0.5-0.4-1-0.9-1.3-1.5c-0.3-0.5-0.6-1.3-0.9-2.2c-0.2-0.9-0.3-2.6-0.3-5.1v-12.2h-4.8V179.3z"/>
			<path d="M613.6,202.5V199c-1.2,1.3-2.5,2.3-4,3s-3,1.1-4.5,1.1c-1.7,0-3.3-0.4-4.8-1.3s-2.6-2-3.3-3.5c-0.8-1.5-1.1-4-1.1-7.4
				v-15.8h5.5v15.7c0,2.9,0.4,4.9,1.2,6.1c0.8,1.1,2.3,1.7,4.4,1.7c2.6,0,4.8-1.3,6.6-3.8v-19.7h5.5v27.6H613.6z"/>
			<path d="M632.6,174.9v6.3l0.3-0.5c2.6-4.3,5.3-6.4,7.9-6.4c2.1,0,4.2,1,6.5,3.1l-2.9,4.8c-1.9-1.8-3.7-2.7-5.3-2.7
				c-1.8,0-3.3,0.8-4.6,2.5c-1.3,1.7-1.9,3.7-1.9,6v14.4h-5.5v-27.6H632.6z"/>
			<path d="M673.4,189.2h-19.4c0.1,2.6,1,4.7,2.7,6.3c1.6,1.6,3.7,2.3,6.3,2.3c3.6,0,6.9-1.1,10-3.4v5.3c-1.7,1.1-3.3,1.9-5,2.4
				c-1.6,0.5-3.6,0.7-5.8,0.7c-3,0-5.5-0.6-7.4-1.9c-1.9-1.3-3.4-3-4.5-5.1c-1.1-2.1-1.7-4.6-1.7-7.4c0-4.2,1.2-7.6,3.6-10.2
				c2.4-2.6,5.5-3.9,9.3-3.9c3.7,0,6.6,1.3,8.8,3.8c2.2,2.6,3.3,6,3.3,10.3V189.2z M654.1,185.9H668c-0.1-2.2-0.8-3.9-2-5
				c-1.2-1.2-2.7-1.8-4.7-1.8c-2,0-3.6,0.6-4.8,1.8C655.3,182,654.4,183.7,654.1,185.9z"/>
			<path d="M722.9,202.5l-4.9-5.7c-0.4,0.4-1.1,1-2.2,1.8l-0.1,0.1c-1.4,1.2-3.2,2.2-5.3,3s-4.1,1.3-5.9,1.3c-2.9,0-5.4-0.9-7.4-2.8
				c-2-1.9-3-4.2-3-6.9c0-2,0.5-3.7,1.5-5.3c1-1.6,2.6-3.2,4.8-4.8l0.1-0.1c1.3-1,2.5-1.7,3.4-2.3c-3.2-3.4-4.7-6.6-4.7-9.7
				c0-2.9,1-5.2,2.9-7c1.9-1.8,4.5-2.7,7.6-2.7c3,0,5.5,0.9,7.5,2.6c2,1.7,2.9,4,2.9,6.7c0,3.7-2.4,7.2-7.3,10.7l-0.4,0.3l5.9,6.7
				c1.7-1.9,3.2-4.1,4.5-6.8h6c-1.4,3.7-3.7,7.4-6.8,11l8.5,9.8H722.9z M713,193.8l1.4-1.2l-6.8-7.9l-2.6,1.9
				c-3.1,2.1-4.7,4.2-4.7,6.4c0,1.2,0.5,2.2,1.5,3c1,0.8,2.3,1.3,3.7,1.3c1.1,0,2.4-0.3,3.8-1C710.6,195.7,711.9,194.8,713,193.8z
				 M709.1,177.7l2.3-1.6c2.1-1.5,3.2-3.2,3.2-5.2c0-1.2-0.4-2.2-1.3-3.1s-2-1.2-3.4-1.2c-1.3,0-2.4,0.4-3.3,1.1
				c-0.9,0.8-1.3,1.7-1.3,2.9c0,1.1,0.3,2.3,1,3.6C707,175.4,707.9,176.6,709.1,177.7z"/>
			<path d="M752.6,160.6h6v41.9h-6V160.6z"/>
			<path d="M772.6,174.9v3.5c2.4-2.7,5.2-4.1,8.3-4.1c1.7,0,3.3,0.4,4.8,1.3c1.5,0.9,2.6,2.1,3.4,3.7c0.8,1.5,1.2,4,1.2,7.4v15.8
				h-5.5v-15.7c0-2.8-0.4-4.8-1.3-6c-0.9-1.2-2.3-1.8-4.3-1.8c-2.6,0-4.8,1.3-6.6,3.9v19.7h-5.6v-27.6H772.6z"/>
			<path d="M794,179.3l10.3-10.1v5.7h8.7v4.9h-8.7v13.5c0,3.2,1.3,4.7,3.9,4.7c2,0,4-0.6,6.2-2v5.1c-2.1,1.2-4.4,1.8-6.9,1.8
				c-2.5,0-4.6-0.7-6.2-2.2c-0.5-0.4-1-0.9-1.3-1.5c-0.3-0.5-0.6-1.3-0.9-2.2s-0.3-2.6-0.3-5.1v-12.2H794V179.3z"/>
			<path d="M841.9,189.2h-19.4c0.1,2.6,1,4.7,2.7,6.3c1.6,1.6,3.7,2.3,6.3,2.3c3.6,0,6.9-1.1,10-3.4v5.3c-1.7,1.1-3.3,1.9-5,2.4
				c-1.6,0.5-3.6,0.7-5.8,0.7c-3,0-5.5-0.6-7.4-1.9c-1.9-1.3-3.4-3-4.5-5.1c-1.1-2.1-1.7-4.6-1.7-7.4c0-4.2,1.2-7.6,3.6-10.2
				c2.4-2.6,5.5-3.9,9.3-3.9c3.7,0,6.6,1.3,8.8,3.8c2.2,2.6,3.3,6,3.3,10.3V189.2z M822.6,185.9h13.9c-0.1-2.2-0.8-3.9-2-5
				c-1.2-1.2-2.7-1.8-4.7-1.8c-2,0-3.6,0.6-4.8,1.8C823.8,182,823,183.7,822.6,185.9z"/>
			<path d="M853.6,174.9v6.3l0.3-0.5c2.6-4.3,5.3-6.4,7.9-6.4c2.1,0,4.2,1,6.5,3.1l-2.9,4.8c-1.9-1.8-3.7-2.7-5.3-2.7
				c-1.8,0-3.3,0.8-4.6,2.5c-1.3,1.7-1.9,3.7-1.9,6v14.4h-5.5v-27.6H853.6z"/>
			<path d="M875,163.3c0.9,0,1.7,0.3,2.3,0.9c0.6,0.6,1,1.4,1,2.3c0,0.9-0.3,1.6-1,2.3c-0.6,0.6-1.4,1-2.3,1c-0.8,0-1.6-0.3-2.2-1
				c-0.6-0.6-1-1.4-1-2.3c0-0.8,0.3-1.6,1-2.2C873.4,163.6,874.1,163.3,875,163.3z M872.3,174.9h5.5v27.6h-5.5V174.9z"/>
			<path d="M898.8,174.8c4.2,0,7.7,1.4,10.5,4.1c2.8,2.7,4.2,6.1,4.2,10.2c0,4-1.4,7.3-4.2,9.9c-2.8,2.6-6.4,3.9-10.7,3.9
				c-4.1,0-7.6-1.3-10.4-4s-4.2-6-4.2-10c0-4,1.4-7.4,4.2-10.1C891,176.2,894.6,174.8,898.8,174.8z M898.5,179.8
				c-2.6,0-4.8,0.9-6.5,2.6c-1.7,1.7-2.5,3.9-2.5,6.6c0,2.6,0.9,4.8,2.6,6.5c1.7,1.7,3.9,2.5,6.6,2.5c2.7,0,4.9-0.8,6.6-2.5
				c1.7-1.7,2.6-3.9,2.6-6.5c0-2.6-0.9-4.8-2.7-6.5C903.4,180.6,901.2,179.8,898.5,179.8z"/>
			<path d="M925.4,174.9v6.3l0.3-0.5c2.6-4.3,5.3-6.4,7.9-6.4c2.1,0,4.2,1,6.5,3.1l-2.9,4.8c-1.9-1.8-3.7-2.7-5.3-2.7
				c-1.8,0-3.3,0.8-4.6,2.5c-1.3,1.7-1.9,3.7-1.9,6v14.4h-5.5v-27.6H925.4z"/>
		</g>
		<g>
			<g>
				<path d="M40.4,10c-1.5,0-3.7,1-4.4,1.5c-0.5,0.5-1.3,2.3-1.5,6c-0.2,3.2-0.2,23.3-0.3,41.7c0,14.7,0.3,25.2,0.3,29.3
					c0.2,9.9,0.6,12.8,10,15.2c3.2,0.6,4.5,1.9,4.5,3.4c0,1.3-2.7,2.3-5,2.3c-4.2,0-13.4-1-20.5-1C18.9,108.3,11,109,6,109
					c-3.7,0-6-0.8-6-2.6c0-1.1,2.3-2.4,3.9-2.9c7.9-1.9,9.9-4.4,10.3-11.8c0.5-6.5,1-17,1-25.2c0-5.2,0-41.4-0.3-46.1
					c-0.5-5.7-1.3-8.2-10.2-9.4C2.6,10.7,1,9.5,1,8.6C1,7.3,2.4,6.3,4.4,6c1-0.2,3.9-0.2,5.3-0.2c10.3,0,23.6-1.3,30.9-1.3
					c15.5,0,26,2.9,32.7,9.4c7.6,7.4,9.4,16.2,9.4,21.8c0,13.3-6,20.4-10.7,24.4c-4.2,3.6-13.1,7.3-19.4,7.3c-1.8,0-6.3-0.3-8.4-1.1
					c-2.3-1-3.4-1.8-3.4-3.2c0-0.6,1.1-1.6,2.4-1.6c1.3,0,1.8,0,2.4,0c6.8,0,16.8-8.1,16.8-24.9C62.4,23.6,53.7,10,40.4,10z"/>
				<path d="M153.8,6c5.3,0,12-0.6,14.2-1c0.6-0.2,1.8,1,1.9,2.1c0.2,2.9,0.2,14.1,0.2,17.3c0,2.3-1.1,4.5-2.6,4.5
					c-1.5,0-2.7-2.4-3.1-4c-2.1-9.1-6.6-11.5-10.3-12.1c-3.1-0.5-10-1.1-22.5-1c-0.6,0-1.9,0.6-2.1,4.5c-0.3,4-0.8,26.5-0.6,35.4
					c0,0.5,0.6,1.6,1.6,1.6h12.9c11.5,0,11.2-0.6,14.2-7.8c1-2.4,2.1-4.2,3.6-4.2c1.3,0,1.8,2.7,1.6,4.5c-0.3,4.5-0.6,7.4-0.6,11.2
					c0,4.4,0.3,7,0.6,11c0.2,2.9-0.8,4.9-2.1,4.9c-1.3,0-2.6-1.9-3.1-3.6c-2.1-7.1-4.2-8.2-10.5-8.7c-5.2-0.5-11.2-0.5-16.2-0.5
					c-0.6,0-2.1,1.6-2.1,1.9c-0.6,4.5-0.5,17.1-0.3,22.5c0.2,3.9,0,9.9,0.6,13.3c0.5,1.5,1.9,3.6,3.6,3.9c2.6,0.5,7.6,1,13.1,1
					c4.9,0,10.8,0,14.9-1.5c4.9-1.8,9.2-5.7,12.8-12c2.3-4.2,3.7-5.7,5-5.7c1.6,0,1.5,3.4,1.3,4.7c0,1.3-4.7,16.2-6.1,18.8
					c-0.5,1.1-3.1,2.1-3.9,2.1c-1.8,0-41.7-0.8-53.9-0.8c-10.8,0-12.6,0.8-18.4,0.8c-3.1,0-5.5-0.5-5.5-2.1c0-1.5,2.1-2.6,4.9-3.2
					c8.2-1.9,10.3-3.6,11-12.3c0.5-6.8,1.3-19.1,1.3-39.1c0-19.1,0.2-26.5-0.2-31.2c-0.3-5.8-1.6-9.1-8.6-10.3
					c-3.4-0.6-5.2-1.3-5.2-2.9c0-1.5,2.7-2.4,5-2.4c7.6,0,20.9,0.5,29.3,0.5H153.8z"/>
				<path d="M261,52.1c-0.6,0.5-4,2.3-6.3,3.4c-0.8,0.3-0.6,1.6-0.3,2.3c3.1,6.5,16.3,28.8,24.4,38.2c4.4,5.2,9.1,7.1,13.9,8.1
					c1.6,0.3,2.9,1.6,2.9,2.3c0,1-1.5,2.1-2.6,2.4c-2.6,1-8.7,1.3-10.8,1.3c-14.7,0-21-5.8-24.4-10.5c-4.5-6.1-12.8-19.4-19.6-31
					c-1.5-2.4-3.9-6-5.2-6.8c-1.1-1-4.7-2.1-7.8-2.1c-0.6,0-1.6,0.8-1.8,1.6c-0.3,3.2,0,24.7,0.5,32.2c0.5,7,1.6,8.6,9.1,10.5
					c2.7,0.8,3.9,1.9,3.9,3.1c0,1.8-3.1,2.4-5,2.4c-5.7,0-12.8-1-20.7-1c-5.7,0-13.7,0.6-15.5,0.6c-4,0-5.2-1.1-5.2-2.6
					c0-1,1.8-1.9,3.9-2.6c7.4-2.3,9.2-4.2,9.7-9.4c1-12.5,1-26,1-39.8c0-17.3-0.3-31-0.8-35.4c-0.3-3.9-1.8-6.3-9.4-8.1
					c-2.3-0.6-4-1.8-4-3.1c0-1.1,1.9-2.3,4.7-2.3c5,0,8.4,0,11.8,0c6,0,19.4-0.8,28.1-0.8c7.4,0,20.4,0.6,28.1,7.1
					c5,4,8.7,11.8,8.7,19.2C272.3,40.1,268.1,46.4,261,52.1z M245.3,16.2c-3.7-3.9-8.7-5.7-13.1-5.7c-0.6,0-4.9,0.5-6.1,1.1
					c-0.8,0.5-1.8,2.6-1.9,3.4c-0.5,5.5-1.1,33.8-0.5,38c0.2,1,1.3,1.9,2.1,1.9c8.2,0,15.7-2.4,17.5-3.6c4.4-3.2,9.1-9.1,9.1-18.1
					C252.3,29.1,250.8,21.8,245.3,16.2z"/>
				<path d="M344.8,6c18.8,0,25.1-0.5,26.5-0.6c1.1-0.2,2.1,1,2.1,1.9c-0.3,4.7,0.5,12.5,0.6,18c0.2,2.1-0.8,4.5-2.4,4.5
					c-1.3,0-2.6-1.6-3.7-5.3c-1.9-6.3-5.2-11-10.8-11.8c-5-0.5-19.1-0.5-22.5-0.3c-1,0-2.4,1.5-2.4,1.8c-0.8,4.9-1,23.9-1,34.6
					c0,2.6,0.6,5.7,1.9,5.7c4.9,0,15.2,0.2,18.8-0.3c5-0.8,6.8-1.9,8.6-7.4c0.8-2.3,1.8-4.2,3.4-4.2c1.3,0,1.9,2.4,1.9,3.9
					c0,2.1-0.6,7.4-0.6,10.3c0,5.7,0.3,9.7,0.3,12.3c0,3.9-1.5,5.3-2.7,5.3c-0.6,0-1.9-1.1-2.9-4.2c-1.6-5.8-4.2-7.3-6.6-7.8
					c-2.1-0.5-7-1-10.5-1c-2.7,0-7.6,0.2-10,0.5c-0.6,0.2-1.3,1.5-1.5,1.8c0,10.7,0.6,26.7,0.6,29.4c0.3,6.6,1.6,8.6,9.9,10.2
					c2.6,0.5,4.7,1.6,4.7,3.2c0,1.3-2.4,2.4-5.3,2.4c-4.2,0-10.2-0.5-16.3-0.5c-8.2,0-17.8,1-23.1,1c-3.2,0-4.7-1-4.7-1.9
					c0-1.6,1.8-2.7,4.7-3.4c7.1-1.9,8.6-4.7,8.9-8.6c0.5-5,1.3-14.7,1.3-46.4c0-15,0-24.4-0.3-28.6c-0.3-5.3-2.3-7.8-8.6-9.2
					c-3.4-1-5.2-1.8-5.2-3.4c0-1.5,2.6-2.3,4.9-2.3c7.1,0,14.4,0.5,20.9,0.5H344.8z"/>
				<path d="M445.8,6c5.3,0,12-0.6,14.2-1c0.6-0.2,1.8,1,1.9,2.1c0.2,2.9,0.2,14.1,0.2,17.3c0,2.3-1.1,4.5-2.6,4.5
					c-1.5,0-2.7-2.4-3.1-4c-2.1-9.1-6.6-11.5-10.3-12.1c-3.1-0.5-10-1.1-22.5-1c-0.6,0-1.9,0.6-2.1,4.5c-0.3,4-0.8,26.5-0.6,35.4
					c0,0.5,0.6,1.6,1.6,1.6h12.9c11.5,0,11.2-0.6,14.2-7.8c1-2.4,2.1-4.2,3.6-4.2c1.3,0,1.8,2.7,1.6,4.5c-0.3,4.5-0.6,7.4-0.6,11.2
					c0,4.4,0.3,7,0.6,11c0.2,2.9-0.8,4.9-2.1,4.9c-1.3,0-2.6-1.9-3.1-3.6c-2.1-7.1-4.2-8.2-10.5-8.7c-5.2-0.5-11.2-0.5-16.2-0.5
					c-0.6,0-2.1,1.6-2.1,1.9c-0.6,4.5-0.5,17.1-0.3,22.5c0.2,3.9,0,9.9,0.6,13.3c0.5,1.5,1.9,3.6,3.6,3.9c2.6,0.5,7.6,1,13.1,1
					c4.9,0,10.8,0,14.9-1.5c4.9-1.8,9.2-5.7,12.8-12c2.3-4.2,3.7-5.7,5-5.7c1.6,0,1.5,3.4,1.3,4.7c0,1.3-4.7,16.2-6.1,18.8
					c-0.5,1.1-3.1,2.1-3.9,2.1c-1.8,0-41.7-0.8-53.9-0.8c-10.8,0-12.6,0.8-18.4,0.8c-3.1,0-5.5-0.5-5.5-2.1c0-1.5,2.1-2.6,4.9-3.2
					c8.2-1.9,10.3-3.6,11-12.3c0.5-6.8,1.3-19.1,1.3-39.1c0-19.1,0.2-26.5-0.2-31.2c-0.3-5.8-1.6-9.1-8.6-10.3
					c-3.4-0.6-5.2-1.3-5.2-2.9c0-1.5,2.7-2.4,5-2.4c7.6,0,20.9,0.5,29.3,0.5H445.8z"/>
				<path d="M566.8,5.8c3.9,1,7.9,1.9,11.6,2.4c1.1,0,2.4,1.9,2.4,4.4c0.2,4.5,0.5,10.2,0.8,14.9c0.2,3.4-1,6.1-2.7,6.1
					c-0.8,0-2.3-1.9-3.1-4.4c-1.6-5-4-9.4-6.8-11.5c-7-5.8-15.2-9.4-23.9-9.4c-25.7,0-37.8,20.4-37.8,45c0,10.8,1.9,20.2,5.5,27.3
					c8.9,17.8,23.6,24.1,36.2,24.1c2.1,0,10-0.3,15.7-3.7c6-3.4,10.3-8.1,14.1-14.7c1.9-3.6,3.1-5,4.4-5c1.8,0,1.8,4.2,1.3,6
					c-0.8,4-3.4,11.2-4.9,14.1c-0.5,1.5-3.4,4-5.8,5.2c-2.3,0.8-13.4,4.7-28.3,4.7c-23.9,0-40.9-10.7-47.5-18.3
					c-6.1-7.1-13.6-18.4-13.6-36.4c0-19.6,11-33.3,17.8-38.8c13.7-11.3,30.4-14.6,43.7-14.6C553.2,3.2,561,4.4,566.8,5.8z"/>
				<path d="M682.7,5.7c7.9-0.6,10.3-1.3,12.5-2.6c1.3-0.8,1.9-1.3,2.6-1.3c0.8,0,2.1,1.8,1.5,4c-1.3,4.5-2.9,12.8-3.4,18.8
					c0,1.5-1.1,4.2-3.1,4.2c-1.1,0-2.1-0.8-2.7-5c-1.6-9.2-3.7-10.7-11.6-11c-3.9,0-15.7,0.2-19.7,0.8c-1,0.2-1.6,1.3-1.6,1.9
					c0,7.4-0.2,19.7-0.2,33.6c0,18.6,0.2,35.7,0.8,43.8c0.5,5.2,1.8,8.4,12.6,10.7c2.3,0.5,4,2.3,4,3.2c0,1.5-2.7,2.1-4.5,2.1
					c-1.3,0-19.7-0.6-23.9-0.6c-5,0-17.5,1-20.2,1c-3.1,0-5-0.6-5-1.9c0-1.5,1.9-2.9,3.6-3.4c10.5-2.6,11.2-4.7,11.8-16
					c0.6-9.5,1.5-41.7,1.5-54c0-9.2-0.2-14.7-0.2-18.9c0-1.5-1.3-2.3-1.8-2.3c-3.1-0.5-14.7-0.6-18.3-0.6c-2.6,0-7.1,1.6-8.9,3.7
					c-1.6,1.8-3.4,4.7-5.5,8.6c-1.9,3.2-2.9,4.2-3.6,4.2c-1.6,0-2.4-1.9-2.4-3.6c0-3.1,2.9-13.6,3.1-21.8c0-0.6,1.5-3.2,2.6-3.2
					c1.1,0,1.8,1.3,2.7,2.6c0.5,0.6,3.6,2.3,6.6,2.6c3.6,0.3,24.9,1,35.9,1C656.9,6.1,677.4,6,682.7,5.7z"/>
			</g>
			<g>
				<path d="M890.9,6c0.6,0.2,1.9,2.4,2.1,3.2c0,2.1,1.6,14.6,1.6,15.2c0,2.4-0.5,4-1.5,4c-1.3,0-3.9-1.5-4.7-3.9
					c-1.6-5.3-5-9.9-7-11.5c-3.9-3.2-7.9-4.5-12.9-4.5c-7.6,0-16.5,6.3-16.5,16.8c0,9.5,7.1,14.7,21.7,23.9
					c19.9,12.1,23.8,22.5,23.8,32.3c0,8.4-4.9,18.1-14.2,23.8c-5.5,3.4-14.9,5.8-22.6,5.8c-9.5,0-16.7-1.6-23.3-4.2
					c-1.3-0.6-4.2-4-4.2-4.7c-1.3-5.7-2.7-12.6-2.7-17.3c0-1.1,1.8-3.4,2.6-3.4c1.3,0,3.9,3.9,6.3,8.9c4.9,9.9,14.2,14.9,22.5,14.9
					c7.4,0,16.8-5.8,16.8-16.2c0-6.8-3.4-13.3-18.3-23C843.9,55.5,835,46.6,835,32.2c0-9.2,4.7-17,9.9-21.2
					c5.3-4.5,12.9-7.8,25.7-7.8C878,3.2,886.6,5.2,890.9,6z"/>
				<path d="M950.6,10c-1.5,0-3.7,1-4.4,1.5c-0.5,0.5-1.3,2.3-1.5,6c-0.2,3.2-0.2,23.3-0.3,41.7c0,14.7,0.3,25.2,0.3,29.3
					c0.2,9.9,0.6,12.8,10,15.2c3.2,0.6,4.5,1.9,4.5,3.4c0,1.3-2.7,2.3-5,2.3c-4.2,0-13.4-1-20.5-1c-4.7,0-12.6,0.6-17.6,0.6
					c-3.7,0-6-0.8-6-2.6c0-1.1,2.3-2.4,3.9-2.9c7.9-1.9,9.9-4.4,10.3-11.8c0.5-6.5,1-17,1-25.2c0-5.2,0-41.4-0.3-46.1
					c-0.5-5.7-1.3-8.2-10.2-9.4c-2.1-0.3-3.7-1.5-3.7-2.4c0-1.3,1.5-2.3,3.4-2.6c1-0.2,3.9-0.2,5.3-0.2c10.3,0,23.6-1.3,30.9-1.3
					c15.5,0,26,2.9,32.7,9.4c7.6,7.4,9.4,16.2,9.4,21.8c0,13.3-6,20.4-10.7,24.4c-4.2,3.6-13.1,7.3-19.4,7.3c-1.8,0-6.3-0.3-8.4-1.1
					c-2.3-1-3.4-1.8-3.4-3.2c0-0.6,1.1-1.6,2.4-1.6c1.3,0,1.8,0,2.4,0c6.8,0,16.8-8.1,16.8-24.9C972.6,23.6,963.9,10,950.6,10z"/>
				<path d="M1048.3,6.8c1.5,3.9,4.4,12.1,6.5,18.1c8.9,25.1,19.9,54.3,23.1,62.4c5.3,13.1,8.9,14.7,14.4,16.3
					c2.7,0.8,4.2,1.8,4.2,2.9s-1.6,2.4-5.3,2.4c-4,0-16.2-0.6-21.2-0.6c-5.3,0-11.6,0.3-15.8,0.3c-3.2,0-5.2-1-5.2-2.4
					c0-0.8,1.1-2.1,4.2-2.7c6.6-1.6,6.8-4.2,6.5-6.8c-0.3-4.2-3.7-13.3-7.4-23.6c-0.2-0.6-1.9-2.4-3.9-2.4
					c-17.1-0.2-24.9,0.3-27.2,0.5c-0.5,0-1.5,1.1-1.8,1.6c-5.2,12.9-7,20.2-7,23.4c0,3.2,1.6,5.5,7.6,7.1c3.2,0.8,4.7,1.8,4.7,3.2
					c0,1.3-2.3,2.1-4.9,2.1c-2.9,0-7-0.3-12.9-0.3c-6.3,0-13.6,0.6-16,0.6c-3.7,0-4.7-1-4.7-1.9c0-1.1,0.6-2.3,4-3.2
					c8.2-2.3,10-4.9,14.7-14.4c3.9-7.8,21.3-53.9,28.1-69.9c0.2-0.3,0.8-2.3,0.8-2.9c0-0.5-0.2-1,0.3-1.3c2.3-2.3,7.3-8.2,8.4-10
					c1-1.5,2.1-2.1,2.9-2.1C1046.3,3.2,1047,3.6,1048.3,6.8z M1048.6,61.6c-2.4-7.6-9.5-27.2-11.8-32.5c-0.3-1.1-1.3-0.8-1.8,0.5
					c-2.9,7.8-10.7,28.1-11.6,32c-0.2,0.8,0.5,1.6,1.1,1.6c6.3-0.2,18.3-0.3,23.4-0.3C1048.1,62.9,1048.8,62.3,1048.6,61.6z"/>
				<path d="M1184.3,5.8c3.9,1,7.9,1.9,11.6,2.4c1.1,0,2.4,1.9,2.4,4.4c0.2,4.5,0.5,10.2,0.8,14.9c0.2,3.4-1,6.1-2.7,6.1
					c-0.8,0-2.3-1.9-3.1-4.4c-1.6-5-4-9.4-6.8-11.5c-7-5.8-15.2-9.4-23.9-9.4c-25.7,0-37.8,20.4-37.8,45c0,10.8,1.9,20.2,5.5,27.3
					c8.9,17.8,23.6,24.1,36.2,24.1c2.1,0,10-0.3,15.7-3.7c6-3.4,10.3-8.1,14.1-14.7c1.9-3.6,3.1-5,4.4-5c1.8,0,1.8,4.2,1.3,6
					c-0.8,4-3.4,11.2-4.9,14.1c-0.5,1.5-3.4,4-5.8,5.2c-2.3,0.8-13.4,4.7-28.3,4.7c-23.9,0-40.9-10.7-47.5-18.3
					c-6.1-7.1-13.6-18.4-13.6-36.4c0-19.6,11-33.3,17.8-38.8c13.7-11.3,30.4-14.6,43.7-14.6C1170.7,3.2,1178.5,4.4,1184.3,5.8z"/>
				<path d="M1273.9,6c5.3,0,12-0.6,14.2-1c0.6-0.2,1.8,1,1.9,2.1c0.2,2.9,0.2,14.1,0.2,17.3c0,2.3-1.1,4.5-2.6,4.5
					c-1.5,0-2.7-2.4-3.1-4c-2.1-9.1-6.6-11.5-10.3-12.1c-3.1-0.5-10-1.1-22.5-1c-0.6,0-1.9,0.6-2.1,4.5c-0.3,4-0.8,26.5-0.6,35.4
					c0,0.5,0.6,1.6,1.6,1.6h12.9c11.5,0,11.2-0.6,14.2-7.8c1-2.4,2.1-4.2,3.6-4.2c1.3,0,1.8,2.7,1.6,4.5c-0.3,4.5-0.6,7.4-0.6,11.2
					c0,4.4,0.3,7,0.6,11c0.2,2.9-0.8,4.9-2.1,4.9s-2.6-1.9-3.1-3.6c-2.1-7.1-4.2-8.2-10.5-8.7c-5.2-0.5-11.2-0.5-16.2-0.5
					c-0.6,0-2.1,1.6-2.1,1.9c-0.6,4.5-0.5,17.1-0.3,22.5c0.2,3.9,0,9.9,0.6,13.3c0.5,1.5,1.9,3.6,3.6,3.9c2.6,0.5,7.6,1,13.1,1
					c4.9,0,10.8,0,14.9-1.5c4.9-1.8,9.2-5.7,12.8-12c2.3-4.2,3.7-5.7,5-5.7c1.6,0,1.5,3.4,1.3,4.7c0,1.3-4.7,16.2-6.1,18.8
					c-0.5,1.1-3.1,2.1-3.9,2.1c-1.8,0-41.7-0.8-53.9-0.8c-10.8,0-12.6,0.8-18.4,0.8c-3.1,0-5.5-0.5-5.5-2.1c0-1.5,2.1-2.6,4.9-3.2
					c8.2-1.9,10.3-3.6,11-12.3c0.5-6.8,1.3-19.1,1.3-39.1c0-19.1,0.2-26.5-0.2-31.2c-0.3-5.8-1.6-9.1-8.6-10.3
					c-3.4-0.6-5.2-1.3-5.2-2.9c0-1.5,2.7-2.4,5-2.4c7.6,0,20.9,0.5,29.3,0.5H1273.9z"/>
			</g>
			<circle cx="759.7" cy="57.9" r="26.3"/>
		</g>
	</g>
</g>
</svg>
